<?xml version="1.0" encoding="utf-8"?>
<!-- Generator: Adobe Illustrator 16.0.0, SVG Export Plug-In . SVG Version: 6.00 Build 0)  -->
<!DOCTYPE svg PUBLIC "-//W3C//DTD SVG 1.1//EN" "http://www.w3.org/Graphics/SVG/1.1/DTD/svg11.dtd" [
	<!ENTITY ns_flows "http://ns.adobe.com/Flows/1.0/">
	<!ENTITY ns_extend "http://ns.adobe.com/Extensibility/1.0/">
	<!ENTITY ns_ai "http://ns.adobe.com/AdobeIllustrator/10.0/">
	<!ENTITY ns_graphs "http://ns.adobe.com/Graphs/1.0/">
]>
<svg version="1.1" xmlns:x="&ns_extend;" xmlns:i="&ns_ai;" xmlns:graph="&ns_graphs;"
	 xmlns="http://www.w3.org/2000/svg" xmlns:xlink="http://www.w3.org/1999/xlink" xmlns:a="http://ns.adobe.com/AdobeSVGViewerExtensions/3.0/"
	 x="0px" y="0px" width="1304.333px" height="600px" viewBox="0 0 1304.333 600" style="enable-background:new 0 0 1304.333 600;"
	 xml:space="preserve">
<style type="text/css">
<![CDATA[
	.st0{fill:none;stroke:#FFE100;stroke-width:7;stroke-linecap:round;stroke-linejoin:round;stroke-miterlimit:10;}
	.st1{fill:none;stroke:#2CA6E0;stroke-width:11;stroke-linecap:round;stroke-linejoin:round;stroke-miterlimit:10;}
	.st2{fill:none;stroke:#2CA6E0;stroke-width:18;stroke-linecap:round;stroke-linejoin:round;stroke-miterlimit:10;}
	.st3{fill:none;stroke:#FFFFFF;stroke-width:4;stroke-linecap:round;stroke-linejoin:round;stroke-miterlimit:10;}
	.st4{fill:#F3B1B9;}
	.st5{fill:none;stroke:#FFE100;stroke-width:7;stroke-miterlimit:10;}
	.st6{fill:url(#SVGID_1_);}
	.st7{fill:#2CA6E0;}
	.st8{fill:#FFE100;}
	.st9{fill:#FFFFFF;}
	.st10{fill:#FFFFFF;stroke:#231815;stroke-miterlimit:10;}
	.st11{fill:none;}
	.st12{fill-rule:evenodd;clip-rule:evenodd;fill:#F3B1B9;}
	
		.st13{fill-rule:evenodd;clip-rule:evenodd;fill:none;stroke:#F3B1B9;stroke-width:5;stroke-linecap:round;stroke-linejoin:round;stroke-miterlimit:10;}
	.st14{fill:none;stroke:#F3B1B9;stroke-width:5;stroke-linecap:round;stroke-linejoin:round;stroke-miterlimit:10;}
	.st15{fill:none;stroke:#F3B1B9;stroke-width:10;stroke-linecap:round;stroke-linejoin:round;stroke-miterlimit:10;}
	.st16{fill:none;stroke:#FFE100;stroke-width:10.5;stroke-miterlimit:10;}
]]>
</style>
<g id="all">
	<g>
		<path class="st5" d="M632.865,529.905c-3.064,21.813-23.231,39.493-45.04,39.493H176.64c-21.81,0-37.007-17.68-33.941-39.493l0,0
			c3.064-21.813,23.23-39.492,45.043-39.492h411.183C620.736,490.413,635.934,508.093,632.865,529.905L632.865,529.905z"/>
		<g>
			<polygon class="st0" points="477.156,151.454 442.252,126.815 442.252,139.073 392.886,139.073 392.886,163.842 442.252,163.842 
				442.252,176.182 			"/>
			<path class="st8" d="M364.56,135.672h-45.885v-8.857c0-1.303-0.728-2.497-1.884-3.095c-1.153-0.592-2.548-0.493-3.612,0.251
				l-34.904,24.728c-0.922,0.656-1.47,1.714-1.47,2.847c0,1.129,0.552,2.19,1.474,2.844l34.904,24.639
				c0.602,0.422,1.303,0.636,2.01,0.636c0.547,0,1.099-0.129,1.602-0.391c1.156-0.599,1.881-1.789,1.881-3.092v-8.775h45.885
				c1.924,0,3.482-1.558,3.482-3.483v-24.769C368.042,137.229,366.483,135.672,364.56,135.672z"/>
		</g>
		<path class="st4" d="M1118.063,217.943c0,21.809-17.68,39.489-39.496,39.489c-21.809,0-39.488-17.681-39.488-39.489
			c0-21.816,17.68-39.497,39.488-39.497C1100.384,178.447,1118.063,196.127,1118.063,217.943z"/>
		<path class="st8" d="M1018.63,217.943c0,21.809-17.68,39.489-39.489,39.489s-39.489-17.681-39.489-39.489
			c0-21.816,17.68-39.497,39.489-39.497S1018.63,196.127,1018.63,217.943z"/>
		<path class="st16" d="M130.29,254.467c0-47.306,38.346-85.652,85.651-85.652c47.313,0,85.652,38.347,85.652,85.652"/>
		<path class="st15" d="M380.759,280.419c26.759-79.985,135.818-139.87,266.283-139.87c131.717,0,241.613,61.041,267.035,142.182"/>
		<g>
			<path class="st9" d="M990.433,240.521c0,1.163-0.938,2.102-2.102,2.102h-30.863c-1.164,0-2.109-0.938-2.109-2.102v-1.667
				c0-1.163,0.945-2.108,2.109-2.108h30.863c1.163,0,2.102,0.945,2.102,2.108V240.521z"/>
			<path class="st9" d="M986.153,193.256h-26.51c-1.136,0-2.054,0.939-2.054,2.096v28.217v8.674v2.523h30.618v-2.523v-8.674v-28.217
				C988.208,194.195,987.29,193.256,986.153,193.256z M962.657,200.311c0-1.163,0.945-2.102,2.109-2.102h16.266
				c1.162,0,2.102,0.938,2.102,2.102v9.714c0,1.164-0.939,2.103-2.102,2.103h-16.266c-1.164,0-2.109-0.938-2.109-2.103V200.311z"/>
			<path class="st9" d="M991.283,230.726c0.789,2.415,3.062,4.163,5.734,4.163c2.864,0,5.259-1.993,5.878-4.674l0.033-0.088
				c0,0,0-14.041,0-17.197c0-3.149-1.108-3.401-1.108-3.401l-10.952-10.823l-1.422,1.483l5.504,5.503v8.319
				c0,0,0.36,1.688,1.395,2.715c1.027,1.034,4.428,4.436,4.428,4.436v8.537l-0.027,0.347c-0.476,1.578-1.938,2.728-3.666,2.728
				c-1.721,0-3.184-1.143-3.66-2.707v-7.456c0,0-0.477-4.278-4.374-4.278v2.429c0,0,2.238,0.551,2.238,2.163
				C991.283,224.528,991.283,230.726,991.283,230.726z"/>
		</g>
		<g>
			<path class="st7" d="M719.838,427.891l-13.569,96.55c-0.71,5.053-3.26,7.579-7.646,7.579c-4.083,0-5.768-2.526-5.058-7.579
				l10.033-71.389c-4.263,6.366-7.904,11.216-10.923,14.55c-3.021,3.335-5.245,5.002-6.673,5.002c-3.775,0-5.344-2.273-4.704-6.82
				c0.27-1.918,2.558-5.506,6.87-10.762c12.012-15.056,22.9-32.99,32.663-53.808c1.17-2.523,2.432-4.419,3.783-5.683
				c1.349-1.264,2.843-1.896,4.476-1.896c4.795,0,6.917,1.971,6.363,5.911C735.085,402.176,729.878,411.623,719.838,427.891z
				 M780.207,427.437l-3.131,22.28h30.918c4.795,0,6.917,1.97,6.363,5.911c-0.554,3.94-3.229,5.911-8.024,5.911h-30.918
				l-3.153,22.433h36.122c4.898,0,7.07,1.971,6.516,5.911c-0.554,3.94-3.278,5.912-8.177,5.912h-36.122l-4.005,28.494
				c-0.724,5.153-3.229,7.73-7.515,7.73c-4.285,0-6.066-2.577-5.342-7.73l13.611-96.853h-12.857
				c-6.204,9.298-11.529,16.319-15.971,21.068c-4.443,4.75-7.889,7.123-10.338,7.123c-3.979,0-5.657-2.222-5.032-6.669
				c0.227-1.615,1.654-3.789,4.284-6.517c5.255-5.458,10.389-11.847,15.397-19.175c5.009-7.325,9.612-15.028,13.81-23.114
				c2.085-3.94,4.657-5.911,7.719-5.911c4.489,0,6.486,1.77,5.989,5.305c-0.284,2.022-3.026,7.378-8.227,16.066h58.315
				c2.346,0,4.085,0.507,5.221,1.516c1.132,1.012,1.564,2.478,1.295,4.396c-0.27,1.921-1.114,3.387-2.531,4.396
				c-1.419,1.011-3.301,1.516-5.646,1.516H780.207z"/>
			<path class="st7" d="M844.198,524.518c-1.977-2.274-2.565-5.889-1.768-10.838l4.665-33.193c0.71-5.052,2.376-8.739,4.999-11.065
				c2.623-2.323,6.411-3.334,11.369-3.031h28.93c5.1,0,8.644,1.112,10.627,3.335c1.984,2.224,2.524,5.812,1.626,10.762
				l-4.665,33.193c-0.71,5.052-2.353,8.739-4.922,11.064c-2.573,2.323-6.345,3.384-11.314,3.183h-28.929
				C849.713,527.927,846.175,526.791,844.198,524.518z M886.452,515.194c1.046-0.908,1.769-2.777,2.166-5.607l3.515-25.009
				c0.384-2.729,0.156-4.57-0.677-5.532c-0.837-0.959-2.58-1.439-5.231-1.439h-19.745c-2.858,0-4.809,0.454-5.854,1.363
				c-1.047,0.91-1.769,2.78-2.166,5.608l-3.515,25.009c-0.397,2.83-0.201,4.699,0.59,5.607c0.79,0.91,2.613,1.365,5.471,1.365
				h19.746C883.505,516.56,885.406,516.104,886.452,515.194z M872.851,450.247c-2.169-2.373-2.678-6.188-1.53-11.443l3.28-23.342
				c0.748-10.406,6.502-15.408,17.263-15.006h61.07c5.61,0,9.5,1.189,11.667,3.563c2.166,2.375,2.676,6.19,1.529,11.443
				l-3.28,23.342c-0.675,10.609-6.479,15.611-17.414,15.006h-61.07C878.854,453.81,875.016,452.623,872.851,450.247z
				 M948.657,441.229c1.097-0.91,1.859-2.88,2.285-5.912l2.301-16.369c0.411-2.93,0.223-4.851-0.568-5.76s-2.666-1.364-5.624-1.364
				h-52.193c-3.062,0-5.142,0.455-6.237,1.364c-1.1,0.909-1.803,2.83-2.111,5.76l-2.301,16.369
				c-0.412,2.933-0.226,4.876,0.558,5.836c0.783,0.962,2.706,1.439,5.768,1.439h52.04
				C945.531,442.593,947.56,442.139,948.657,441.229z M914.529,524.518c-2.028-2.274-2.489-5.889-1.385-10.838l4.665-33.193
				c0.71-5.052,2.35-8.739,4.922-11.065c2.57-2.323,6.335-3.334,11.293-3.031h28.928c5.102,0,8.646,1.112,10.629,3.335
				c1.982,2.224,2.574,5.812,1.778,10.762l-4.665,33.193c-0.71,5.052-2.376,8.739-4.998,11.064
				c-2.623,2.323-6.421,3.384-11.392,3.183h-29.081C920.12,527.927,916.556,526.791,914.529,524.518z M957.166,515.194
				c1.046-0.908,1.768-2.777,2.165-5.607l3.515-25.009c0.397-2.828,0.201-4.698-0.589-5.608c-0.791-0.909-2.617-1.363-5.473-1.363
				h-19.591c-2.858,0-4.809,0.454-5.855,1.363c-1.046,0.91-1.768,2.78-2.165,5.608l-3.515,25.009
				c-0.397,2.83-0.201,4.699,0.589,5.607c0.791,0.91,2.613,1.365,5.473,1.365h19.59C954.165,516.56,956.119,516.104,957.166,515.194
				z"/>
			<path class="st7" d="M1136.396,520.349c-0.653,4.646-3.275,6.972-7.867,6.972c-6.429,0-15.068-2.78-25.921-8.336
				c-11.334-5.76-20.584-12.175-27.752-19.249l-3.494,24.857c-0.695,4.949-3.086,7.427-7.166,7.427
				c-3.979,0-5.621-2.478-4.926-7.427l3.43-24.403c-8.664,6.468-19.597,12.731-32.795,18.795
				c-13.199,6.063-22.553,9.095-28.063,9.095c-4.285,0-6.116-2.225-5.492-6.669c0.398-2.831,2.658-4.749,6.779-5.76
				c21.263-5.354,39.841-13.035,55.737-23.039h-50.969c-4.389,0-6.333-1.768-5.836-5.305c0.483-3.434,2.917-5.153,7.306-5.153
				h55.867l1.192-8.488h-32.602c-4.286,0-7.265-0.959-8.932-2.88c-1.67-1.918-2.104-5.002-1.304-9.246l4.899-34.861
				c-7.976,7.378-12.881,11.065-14.718,11.065c-3.775,0-5.372-2.07-4.79-6.215c0.27-1.918,2.338-4.293,6.206-7.124
				c8.198-6.063,16.691-14.952,25.483-26.677c2.014-2.728,4.249-4.092,6.698-4.092c4.08,0,5.908,1.516,5.482,4.547
				c-0.185,1.315-2.361,4.448-6.524,9.397h35.51l5.368-8.791c1.854-3.031,4.362-4.547,7.526-4.547c4.285,0,6.216,1.516,5.79,4.547
				c-0.185,1.315-1.796,3.69-4.828,7.124l-1.459,1.667h46.837c3.57,0,5.129,1.618,4.675,4.851c-0.455,3.235-2.468,4.851-6.038,4.851
				h-48.214l-1.215,8.64h41.785c3.57,0,5.138,1.567,4.697,4.698c-0.44,3.133-2.447,4.698-6.018,4.698h-41.785l-1.278,9.095h41.785
				c3.57,0,5.138,1.567,4.697,4.698c-0.44,3.134-2.447,4.699-6.018,4.699h-41.785l-1.428,10.155h50.51
				c3.673,0,5.283,1.617,4.829,4.85c-0.242,1.72-0.852,2.955-1.823,3.714c-0.975,0.758-2.433,1.137-4.369,1.137h-55.561
				l-1.192,8.488h56.632c4.592,0,6.639,1.769,6.142,5.305c-0.482,3.437-3.02,5.153-7.611,5.153h-51.122
				c11.451,10.004,27.344,17.078,47.681,21.22C1134.415,514.843,1136.865,517.014,1136.396,520.349z M1073.147,463.965l1.428-10.155
				h-37.958l-0.682,4.85c-0.469,3.335,1.066,5.104,4.61,5.306H1073.147z M1075.896,444.412l1.278-9.095h-37.958l-1.278,9.095
				H1075.896z M1041.346,420.161l-0.81,5.76h37.958l1.215-8.64h-34.897C1042.872,417.281,1041.715,418.242,1041.346,420.161z"/>
		</g>
		<g>
			<path class="st7" d="M599.958,462.373c-3.408-1.886-5.795-4.396-7.156-7.528c-1.362-3.133-1.779-6.584-1.249-10.357
				c0.597-4.243,2.232-8.016,4.907-11.317c2.674-3.3,5.792-5.995,9.35-8.084c-1.817-2.559-3.063-4.951-3.735-7.174
				c-0.675-2.223-0.817-4.714-0.429-7.478c0.445-3.166,1.643-6.129,3.597-8.893c1.951-2.761,4.502-4.934,7.649-6.517
				c3.146-1.582,6.625-2.375,10.436-2.375c4.49,0,8.839,1.483,13.049,4.446c0.438,0.27,0.802,0.707,1.092,1.313
				c0.287,0.606,0.391,1.212,0.306,1.818c-0.143,1.011-0.62,1.87-1.434,2.577c-0.814,0.707-1.731,1.062-2.752,1.062
				c-0.408,0-0.997-0.168-1.766-0.506c-3.087-1.751-6.161-2.627-9.223-2.627c-3.333,0-6.095,0.894-8.284,2.678
				c-2.189,1.785-3.464,3.958-3.823,6.518c-0.284,2.021-0.187,3.738,0.296,5.153c0.422,1.348,1.149,2.713,2.18,4.093
				c1.03,1.381,2.877,3.486,5.54,6.314l18.441,19.806c0.735-0.874,2.103-2.862,4.104-5.962c0.453-0.809,1.086-1.448,1.902-1.92
				c0.813-0.471,1.663-0.707,2.548-0.707c1.225,0,2.204,0.404,2.942,1.212c0.735,0.809,1.02,1.819,0.849,3.032
				c-0.075,0.539-0.34,1.212-0.793,2.021c-1.691,2.83-3.712,5.593-6.063,8.286l5.942,6.366c0.536,0.539,0.889,1.045,1.063,1.516
				c0.172,0.472,0.206,1.078,0.102,1.818c-0.17,1.213-0.721,2.224-1.65,3.032c-0.93,0.808-2.008,1.211-3.232,1.211
				c-1.224,0-2.256-0.403-3.094-1.211l-5.826-6.468c-3.345,2.493-6.897,4.43-10.664,5.81c-3.765,1.38-7.553,2.071-11.362,2.071
				C608.068,465.403,603.483,464.394,599.958,462.373z M630.313,451.864l-19.597-21.019c-2.668,1.551-4.934,3.521-6.801,5.912
				c-1.866,2.392-3.009,5.069-3.425,8.033c-0.332,2.358,0.031,4.496,1.088,6.416s2.681,3.436,4.871,4.548
				c2.19,1.11,4.715,1.667,7.571,1.667C619.735,457.422,625.165,455.569,630.313,451.864z"/>
		</g>
		<g>
			<g>
				<polygon class="st4" points="123.279,361.315 101.929,361.315 110.194,321.819 131.548,321.819 				"/>
				<polygon class="st4" points="165.946,361.315 144.596,361.315 152.86,321.819 174.214,321.819 				"/>
				<polygon class="st4" points="208.503,361.315 187.153,361.315 195.418,321.819 216.771,321.819 				"/>
				<polygon class="st4" points="251.187,361.315 229.839,361.315 238.104,321.819 259.458,321.819 				"/>
				<polygon class="st4" points="293.999,361.315 272.648,361.315 280.913,321.819 302.267,321.819 				"/>
			</g>
			<g>
				<polygon class="st4" points="336.682,361.315 315.328,361.315 323.597,321.819 344.946,321.819 				"/>
				<polygon class="st4" points="379.349,361.315 357.995,361.315 366.263,321.819 387.613,321.819 				"/>
				<polygon class="st4" points="421.905,361.315 400.552,361.315 408.82,321.819 430.171,321.819 				"/>
			</g>
			<g>
				<polygon class="st4" points="464.497,361.315 443.149,361.315 451.415,321.819 472.769,321.819 				"/>
			</g>
		</g>
		<line class="st11" x1="1129.152" y1="326.84" x2="1129.914" y2="327.166"/>
		<g>
			<path class="st7" d="M73.896,417.607c3.007,3.496,8.68,3.496,12.67,0l15.877-13.925L82.065,548.671
				C78.089,576.973,97.875,600,126.181,600h602.707c4.851,0,9.348-4.014,10.041-8.959c0.701-4.952-2.674-8.963-7.523-8.963H128.698
				v0.004c-17.738,0-31.204-15.674-28.715-33.411l20.377-144.988l11.967,13.925c3.01,3.496,8.684,3.496,12.67-0.007
				c3.992-3.496,4.789-9.17,1.782-12.666l-25.108-29.218c-3.011-3.496-8.684-3.496-12.674,0l-33.319,29.218
				C71.685,408.431,70.889,414.104,73.896,417.607z"/>
			<linearGradient id="SVGID_1_" gradientUnits="userSpaceOnUse" x1="755.5576" y1="590.793" x2="1146.1719" y2="590.793">
				<stop  offset="0" style="stop-color:#2CA6E0"/>
				<stop  offset="0.257" style="stop-color:#2EA7E0;stop-opacity:0.743"/>
				<stop  offset="0.402" style="stop-color:#37AAE2;stop-opacity:0.598"/>
				<stop  offset="0.5192" style="stop-color:#44B0E4;stop-opacity:0.4808"/>
				<stop  offset="0.6215" style="stop-color:#58B9E6;stop-opacity:0.3785"/>
				<stop  offset="0.7141" style="stop-color:#72C3EA;stop-opacity:0.2859"/>
				<stop  offset="0.7998" style="stop-color:#91D1EF;stop-opacity:0.2002"/>
				<stop  offset="0.88" style="stop-color:#B7E0F4;stop-opacity:0.12"/>
				<stop  offset="0.954" style="stop-color:#E1F2FB;stop-opacity:0.046"/>
				<stop  offset="1" style="stop-color:#FFFFFF;stop-opacity:0"/>
				<a:midPointStop  offset="0" style="stop-color:#2CA6E0"/>
				<a:midPointStop  offset="0.81" style="stop-color:#2CA6E0"/>
				<a:midPointStop  offset="1" style="stop-color:#FFFFFF;stop-opacity:0"/>
			</linearGradient>
			<path class="st6" d="M1146.084,590.793c-0.673,4.813-5.122,8.714-9.938,8.714H763.133c-4.816,0-8.163-3.901-7.489-8.714l0,0
				c0.673-4.813,5.121-8.715,9.938-8.715h373.014C1143.411,582.078,1146.765,585.979,1146.084,590.793L1146.084,590.793z"/>
		</g>
		<g>
			<g>
				<path class="st8" d="M391.64,554.65c-0.584-0.65-0.809-1.518-0.652-2.596c0.334-2.381,1.34-4.554,3.027-6.533
					c1.523-1.841,3.299-3.494,5.319-4.949c2.021-1.459,5-3.337,8.952-5.626c2.864-1.66,5.272-3.143,7.225-4.445
					c4.211-2.83,6.51-5.66,6.904-8.49c0.381-2.693-0.225-4.748-1.816-6.163s-4.156-2.122-7.693-2.122
					c-4.082,0-8.074,0.81-11.973,2.425c-0.578,0.225-1.027,0.337-1.34,0.337c-0.729,0-1.32-0.259-1.762-0.775
					c-0.449-0.514-0.626-1.153-0.518-1.919c0.156-1.122,0.803-1.976,1.926-2.561c4.945-2.289,10.143-3.436,15.584-3.436
					c2.994,0,5.564,0.564,7.722,1.684c2.286,1.17,3.966,2.796,5.026,4.885c1.068,2.088,1.416,4.479,1.035,7.177
					c-0.381,2.737-1.504,5.207-3.354,7.408c-1.748,2.112-3.748,3.999-5.999,5.659c-2.252,1.66-5.524,3.748-9.824,6.266
					c-3.775,2.333-6.482,4.099-8.122,5.285c-1.646,1.19-2.843,2.392-3.604,3.605h23.537c0.815,0,1.482,0.293,1.986,0.874
					c0.503,0.585,0.707,1.282,0.592,2.089c-0.116,0.81-0.504,1.493-1.178,2.055c-0.666,0.564-1.408,0.843-2.225,0.843h-26.258
					C393.069,555.626,392.231,555.3,391.64,554.65z"/>
				<path class="st8" d="M441.497,549.834c-2.592-4.313-3.354-10.241-2.293-17.785c1.055-7.545,3.49-13.473,7.293-17.782
					c3.803-4.313,8.674-6.47,14.619-6.47c5.85,0,10.095,2.133,12.734,6.401c2.646,4.266,3.428,10.214,2.36,17.851
					c-1.075,7.636-3.538,13.584-7.374,17.854c-3.844,4.265-8.688,6.397-14.537,6.397C448.354,556.3,444.089,554.144,441.497,549.834
					z M464.769,545.691c2.585-3.211,4.285-7.759,5.115-13.643c0.816-5.837,0.389-10.364-1.292-13.575
					c-1.681-3.207-4.448-4.816-8.3-4.816c-3.856,0-7.074,1.609-9.659,4.816c-2.585,3.211-4.286,7.738-5.103,13.575
					c-0.83,5.884-0.4,10.432,1.279,13.643c1.681,3.207,4.449,4.816,8.299,4.816C458.966,550.508,462.184,548.898,464.769,545.691z"
					/>
				<path class="st8" d="M485.442,554.65c-0.586-0.65-0.811-1.518-0.653-2.596c0.333-2.381,1.34-4.554,3.026-6.533
					c1.524-1.841,3.3-3.494,5.32-4.949c2.021-1.459,5-3.337,8.952-5.626c2.864-1.66,5.272-3.143,7.225-4.445
					c4.211-2.83,6.511-5.66,6.905-8.49c0.381-2.693-0.225-4.748-1.816-6.163s-4.156-2.122-7.694-2.122
					c-4.081,0-8.075,0.81-11.973,2.425c-0.578,0.225-1.027,0.337-1.341,0.337c-0.727,0-1.318-0.259-1.762-0.775
					c-0.448-0.514-0.625-1.153-0.517-1.919c0.157-1.122,0.803-1.976,1.925-2.561c4.945-2.289,10.143-3.436,15.586-3.436
					c2.992,0,5.564,0.564,7.721,1.684c2.285,1.17,3.966,2.796,5.027,4.885c1.067,2.088,1.414,4.479,1.033,7.177
					c-0.381,2.737-1.503,5.207-3.354,7.408c-1.748,2.112-3.748,3.999-6,5.659s-5.523,3.748-9.822,6.266
					c-3.775,2.333-6.483,4.099-8.123,5.285c-1.646,1.19-2.844,2.392-3.605,3.605h23.537c0.816,0,1.483,0.293,1.986,0.874
					c0.504,0.585,0.707,1.282,0.592,2.089c-0.115,0.81-0.503,1.493-1.177,2.055c-0.667,0.564-1.407,0.843-2.224,0.843h-26.259
					C486.87,555.626,486.034,555.3,485.442,554.65z"/>
				<path class="st8" d="M535.298,549.834c-2.592-4.313-3.359-10.241-2.299-17.785c1.062-7.545,3.49-13.473,7.293-17.782
					c3.809-4.313,8.68-6.47,14.619-6.47c5.85,0,10.102,2.133,12.74,6.401c2.641,4.266,3.43,10.214,2.354,17.851
					c-1.075,7.636-3.53,13.584-7.374,17.854c-3.837,4.265-8.688,6.397-14.537,6.397C542.155,556.3,537.89,554.144,535.298,549.834z
					 M558.563,545.691c2.585-3.211,4.293-7.759,5.115-13.643c0.824-5.837,0.395-10.364-1.285-13.575
					c-1.688-3.207-4.449-4.816-8.307-4.816c-3.85,0-7.074,1.609-9.652,4.816c-2.585,3.211-4.285,7.738-5.109,13.575
					c-0.822,5.884-0.4,10.432,1.279,13.643c1.68,3.207,4.449,4.816,8.307,4.816C552.761,550.508,555.979,548.898,558.563,545.691z"
					/>
			</g>
			<g>
				<g>
					<path class="st8" d="M238.755,500.273c0,1.333,1.081,2.411,2.411,2.411c1.333,0,2.415-1.078,2.415-2.411
						c0-1.334-1.082-2.415-2.415-2.415C239.836,497.858,238.755,498.939,238.755,500.273z"/>
					<circle class="st8" cx="236.341" cy="500.273" r="2.414"/>
					<circle class="st8" cx="241.168" cy="509.926" r="2.413"/>
					<circle class="st8" cx="236.341" cy="509.926" r="2.414"/>
					<circle class="st8" cx="236.341" cy="514.753" r="2.414"/>
					<circle class="st8" cx="231.516" cy="514.753" r="2.412"/>
					<circle class="st8" cx="236.341" cy="519.579" r="2.414"/>
					<circle class="st8" cx="231.516" cy="519.579" r="2.412"/>
					<circle class="st8" cx="226.689" cy="519.579" r="2.415"/>
					<path class="st8" d="M233.928,524.402c0,1.333,1.081,2.415,2.415,2.415s2.412-1.082,2.412-2.415
						c0-1.33-1.078-2.412-2.412-2.412S233.928,523.072,233.928,524.402z"/>
					<path class="st8" d="M229.104,524.402c0,1.333,1.078,2.415,2.412,2.415c1.33,0,2.411-1.082,2.411-2.415
						c0-1.33-1.081-2.412-2.411-2.412C230.183,521.99,229.104,523.072,229.104,524.402z"/>
					<path class="st8" d="M224.274,524.402c0,1.333,1.082,2.415,2.416,2.415c1.332,0,2.414-1.082,2.414-2.415
						c0-1.33-1.082-2.412-2.414-2.412C225.356,521.99,224.274,523.072,224.274,524.402z"/>
					<path class="st8" d="M233.928,529.229c0,1.334,1.081,2.415,2.415,2.415s2.412-1.081,2.412-2.415
						c0-1.33-1.078-2.411-2.412-2.411S233.928,527.898,233.928,529.229z"/>
					<circle class="st8" cx="232.271" cy="546.518" r="2.411"/>
					<circle class="st8" cx="232.271" cy="551.344" r="2.411"/>
					<circle class="st8" cx="232.271" cy="556.171" r="2.411"/>
					<path class="st8" d="M235.944,561.885c1.334,0,2.416-1.078,2.416-2.411c0-1.334-1.082-2.415-2.416-2.415
						c-1.33,0-2.411,1.081-2.411,2.415C233.533,560.807,234.614,561.885,235.944,561.885z"/>
					<circle class="st8" cx="240.771" cy="559.472" r="2.413"/>
					<circle class="st8" cx="245.598" cy="559.472" r="2.413"/>
					<path class="st8" d="M237.458,532.327c0,1.333,1.082,2.415,2.416,2.415c1.332,0,2.41-1.082,2.41-2.415s-1.078-2.411-2.41-2.411
						C238.54,529.916,237.458,530.994,237.458,532.327z"/>
					<path class="st8" d="M229.104,529.229c0,1.334,1.078,2.415,2.412,2.415c1.33,0,2.411-1.081,2.411-2.415
						c0-1.33-1.081-2.411-2.411-2.411C230.183,526.817,229.104,527.898,229.104,529.229z"/>
					<path class="st8" d="M224.274,529.229c0,1.334,1.082,2.415,2.416,2.415c1.332,0,2.414-1.081,2.414-2.415
						c0-1.33-1.082-2.411-2.414-2.411C225.356,526.817,224.274,527.898,224.274,529.229z"/>
					<path class="st8" d="M224.274,534.055c0,1.334,1.082,2.415,2.416,2.415c1.332,0,2.414-1.081,2.414-2.415
						c0-1.329-1.082-2.411-2.414-2.411C225.356,531.644,224.274,532.726,224.274,534.055z"/>
					<path class="st8" d="M219.452,534.055c0,1.334,1.078,2.415,2.411,2.415s2.411-1.081,2.411-2.415
						c0-1.329-1.078-2.411-2.411-2.411S219.452,532.726,219.452,534.055z"/>
					<path class="st8" d="M224.274,538.882c0,1.333,1.082,2.415,2.416,2.415c1.332,0,2.414-1.082,2.414-2.415
						c0-1.33-1.082-2.412-2.414-2.412C225.356,536.47,224.274,537.552,224.274,538.882z"/>
					<circle class="st8" cx="229.858" cy="542.341" r="2.414"/>
					<circle class="st8" cx="218.693" cy="542.341" r="2.411"/>
					<path class="st8" d="M219.452,538.882c0,1.333,1.078,2.415,2.411,2.415s2.411-1.082,2.411-2.415
						c0-1.33-1.078-2.412-2.411-2.412S219.452,537.552,219.452,538.882z"/>
					<circle class="st8" cx="215.404" cy="545.942" r="2.415"/>
					<circle class="st8" cx="210.578" cy="545.942" r="2.412"/>
					<circle class="st8" cx="207.504" cy="549.593" r="2.414"/>
					<circle class="st8" cx="210.77" cy="553.146" r="2.413"/>
					<circle class="st8" cx="214.227" cy="556.508" r="2.415"/>
					<circle class="st8" cx="221.863" cy="519.579" r="2.411"/>
					<circle class="st8" cx="217.037" cy="519.579" r="2.415"/>
					<circle class="st8" cx="213.867" cy="523.253" r="2.415"/>
					<circle class="st8" cx="210.77" cy="526.997" r="2.413"/>
					<circle class="st8" cx="245.994" cy="505.1" r="2.413"/>
					<circle class="st8" cx="241.168" cy="505.1" r="2.413"/>
					<circle class="st8" cx="236.341" cy="505.1" r="2.414"/>
					<circle class="st8" cx="231.516" cy="505.1" r="2.412"/>
				</g>
				<g>
					<circle class="st8" cx="298.355" cy="500.273" r="2.415"/>
					<circle class="st8" cx="293.529" cy="500.273" r="2.411"/>
					<circle class="st8" cx="298.355" cy="509.926" r="2.415"/>
					<circle class="st8" cx="293.529" cy="509.926" r="2.411"/>
					<circle class="st8" cx="293.529" cy="514.753" r="2.411"/>
					<path class="st8" d="M286.294,514.753c0,1.333,1.075,2.411,2.408,2.411c1.334,0,2.416-1.078,2.416-2.411
						c0-1.334-1.082-2.415-2.416-2.415C287.369,512.338,286.294,513.419,286.294,514.753z"/>
					<circle class="st8" cx="293.529" cy="519.579" r="2.411"/>
					<path class="st8" d="M286.294,519.579c0,1.33,1.075,2.411,2.408,2.411c1.334,0,2.416-1.081,2.416-2.411
						c0-1.333-1.082-2.415-2.416-2.415C287.369,517.164,286.294,518.246,286.294,519.579z"/>
					<circle class="st8" cx="283.879" cy="519.579" r="2.415"/>
					<path class="st8" d="M291.118,524.402c0,1.333,1.081,2.415,2.414,2.415c1.334,0,2.408-1.082,2.408-2.415
						c0-1.33-1.074-2.412-2.408-2.412C292.199,521.99,291.118,523.072,291.118,524.402z"/>
					<path class="st8" d="M286.294,524.402c0,1.333,1.075,2.415,2.408,2.415c1.334,0,2.416-1.082,2.416-2.415
						c0-1.33-1.082-2.412-2.416-2.412C287.369,521.99,286.294,523.072,286.294,524.402z"/>
					<path class="st8" d="M281.465,524.402c0,1.333,1.081,2.415,2.415,2.415c1.333,0,2.414-1.082,2.414-2.415
						c0-1.33-1.081-2.412-2.414-2.412C282.546,521.99,281.465,523.072,281.465,524.402z"/>
					<path class="st8" d="M291.118,529.229c0,1.334,1.081,2.415,2.414,2.415c1.334,0,2.408-1.081,2.408-2.415
						c0-1.33-1.074-2.411-2.408-2.411C292.199,526.817,291.118,527.898,291.118,529.229z"/>
					<path class="st8" d="M287.05,546.518c0,1.333,1.082,2.415,2.408,2.415c1.333,0,2.414-1.082,2.414-2.415
						s-1.081-2.411-2.414-2.411C288.132,544.106,287.05,545.185,287.05,546.518z"/>
					<path class="st8" d="M287.05,551.344c0,1.334,1.082,2.412,2.408,2.412c1.333,0,2.414-1.078,2.414-2.412
						c0-1.333-1.081-2.411-2.414-2.411C288.132,548.933,287.05,550.011,287.05,551.344z"/>
					<path class="st8" d="M287.05,556.171c0,1.333,1.082,2.411,2.408,2.411c1.333,0,2.414-1.078,2.414-2.411
						c0-1.334-1.081-2.415-2.414-2.415C288.132,553.756,287.05,554.837,287.05,556.171z"/>
					<path class="st8" d="M293.132,561.885c1.332,0,2.414-1.078,2.414-2.411c0-1.334-1.082-2.415-2.414-2.415
						c-1.327,0-2.408,1.081-2.408,2.415C290.724,560.807,291.805,561.885,293.132,561.885z"/>
					<circle class="st8" cx="297.961" cy="559.472" r="2.413"/>
					<path class="st8" d="M302.784,561.885c1.334,0,2.415-1.078,2.415-2.411c0-1.334-1.081-2.415-2.415-2.415
						c-1.326,0-2.408,1.081-2.408,2.415C300.376,560.807,301.458,561.885,302.784,561.885z"/>
					<path class="st8" d="M294.648,532.327c0,1.333,1.081,2.415,2.415,2.415c1.333,0,2.408-1.082,2.408-2.415
						s-1.075-2.411-2.408-2.411C295.729,529.916,294.648,530.994,294.648,532.327z"/>
					<path class="st8" d="M286.294,529.229c0,1.334,1.075,2.415,2.408,2.415c1.334,0,2.416-1.081,2.416-2.415
						c0-1.33-1.082-2.411-2.416-2.411C287.369,526.817,286.294,527.898,286.294,529.229z"/>
					<path class="st8" d="M281.465,529.229c0,1.334,1.081,2.415,2.415,2.415c1.333,0,2.414-1.081,2.414-2.415
						c0-1.33-1.081-2.411-2.414-2.411C282.546,526.817,281.465,527.898,281.465,529.229z"/>
					<path class="st8" d="M281.465,534.055c0,1.334,1.081,2.415,2.415,2.415c1.333,0,2.414-1.081,2.414-2.415
						c0-1.329-1.081-2.411-2.414-2.411C282.546,531.644,281.465,532.726,281.465,534.055z"/>
					<path class="st8" d="M276.642,534.055c0,1.334,1.074,2.415,2.408,2.415c1.333,0,2.415-1.081,2.415-2.415
						c0-1.329-1.082-2.411-2.415-2.411C277.716,531.644,276.642,532.726,276.642,534.055z"/>
					<path class="st8" d="M281.465,538.882c0,1.333,1.081,2.415,2.415,2.415c1.333,0,2.414-1.082,2.414-2.415
						c0-1.33-1.081-2.412-2.414-2.412C282.546,536.47,281.465,537.552,281.465,538.882z"/>
					<circle class="st8" cx="287.046" cy="542.341" r="2.412"/>
					<path class="st8" d="M273.472,542.341c0,1.333,1.082,2.411,2.408,2.411c1.333,0,2.414-1.078,2.414-2.411
						s-1.081-2.415-2.414-2.415C274.554,539.926,273.472,541.008,273.472,542.341z"/>
					<path class="st8" d="M276.642,538.882c0,1.333,1.074,2.415,2.408,2.415c1.333,0,2.415-1.082,2.415-2.415
						c0-1.33-1.082-2.412-2.415-2.412C277.716,536.47,276.642,537.552,276.642,538.882z"/>
					<circle class="st8" cx="272.594" cy="545.942" r="2.415"/>
					<path class="st8" d="M265.356,545.942c0,1.334,1.074,2.412,2.408,2.412c1.333,0,2.414-1.078,2.414-2.412
						c0-1.333-1.081-2.415-2.414-2.415C266.431,543.527,265.356,544.609,265.356,545.942z"/>
					<circle class="st8" cx="264.693" cy="549.593" r="2.412"/>
					<path class="st8" d="M265.546,553.146c0,1.33,1.082,2.412,2.416,2.412c1.333,0,2.408-1.082,2.408-2.412
						c0-1.333-1.075-2.415-2.408-2.415C266.628,550.731,265.546,551.813,265.546,553.146z"/>
					<circle class="st8" cx="271.417" cy="556.508" r="2.415"/>
					<path class="st8" d="M276.642,519.579c0,1.33,1.074,2.411,2.408,2.411c1.333,0,2.415-1.081,2.415-2.411
						c0-1.333-1.082-2.415-2.415-2.415C277.716,517.164,276.642,518.246,276.642,519.579z"/>
					<circle class="st8" cx="274.227" cy="519.579" r="2.415"/>
					<circle class="st8" cx="271.057" cy="523.253" r="2.415"/>
					<path class="st8" d="M265.546,526.997c0,1.334,1.082,2.412,2.416,2.412c1.333,0,2.408-1.078,2.408-2.412
						c0-1.333-1.075-2.411-2.408-2.411C266.628,524.586,265.546,525.664,265.546,526.997z"/>
					<circle class="st8" cx="303.182" cy="505.1" r="2.412"/>
					<circle class="st8" cx="298.355" cy="505.1" r="2.415"/>
					<circle class="st8" cx="293.529" cy="505.1" r="2.411"/>
					<path class="st8" d="M286.294,505.1c0,1.333,1.075,2.412,2.408,2.412c1.334,0,2.416-1.079,2.416-2.412
						s-1.082-2.415-2.416-2.415C287.369,502.685,286.294,503.767,286.294,505.1z"/>
				</g>
				<g>
					<circle class="st8" cx="355.545" cy="500.273" r="2.415"/>
					<circle class="st8" cx="350.719" cy="500.273" r="2.411"/>
					<circle class="st8" cx="355.545" cy="509.926" r="2.415"/>
					<circle class="st8" cx="350.719" cy="509.926" r="2.411"/>
					<circle class="st8" cx="350.719" cy="514.753" r="2.411"/>
					<path class="st8" d="M343.481,514.753c0,1.333,1.078,2.411,2.411,2.411s2.415-1.078,2.415-2.411
						c0-1.334-1.082-2.415-2.415-2.415S343.481,513.419,343.481,514.753z"/>
					<circle class="st8" cx="350.719" cy="519.579" r="2.411"/>
					<path class="st8" d="M343.481,519.579c0,1.33,1.078,2.411,2.411,2.411s2.415-1.081,2.415-2.411
						c0-1.333-1.082-2.415-2.415-2.415S343.481,518.246,343.481,519.579z"/>
					<path class="st8" d="M338.654,519.579c0,1.33,1.082,2.411,2.415,2.411c1.33,0,2.412-1.081,2.412-2.411
						c0-1.333-1.082-2.415-2.412-2.415C339.736,517.164,338.654,518.246,338.654,519.579z"/>
					<path class="st8" d="M348.308,524.402c0,1.333,1.082,2.415,2.411,2.415c1.333,0,2.411-1.082,2.411-2.415
						c0-1.33-1.078-2.412-2.411-2.412C349.39,521.99,348.308,523.072,348.308,524.402z"/>
					<path class="st8" d="M343.481,524.402c0,1.333,1.078,2.415,2.411,2.415s2.415-1.082,2.415-2.415
						c0-1.33-1.082-2.412-2.415-2.412S343.481,523.072,343.481,524.402z"/>
					<path class="st8" d="M338.654,524.402c0,1.333,1.082,2.415,2.415,2.415c1.33,0,2.412-1.082,2.412-2.415
						c0-1.33-1.082-2.412-2.412-2.412C339.736,521.99,338.654,523.072,338.654,524.402z"/>
					<path class="st8" d="M348.308,529.229c0,1.334,1.082,2.415,2.411,2.415c1.333,0,2.411-1.081,2.411-2.415
						c0-1.33-1.078-2.411-2.411-2.411C349.39,526.817,348.308,527.898,348.308,529.229z"/>
					<circle class="st8" cx="346.651" cy="546.518" r="2.412"/>
					<circle class="st8" cx="346.651" cy="551.344" r="2.412"/>
					<path class="st8" d="M344.239,556.171c0,1.333,1.078,2.411,2.408,2.411c1.334,0,2.415-1.078,2.415-2.411
						c0-1.334-1.081-2.415-2.415-2.415C345.317,553.756,344.239,554.837,344.239,556.171z"/>
					<path class="st8" d="M350.321,561.885c1.333,0,2.414-1.078,2.414-2.411c0-1.334-1.081-2.415-2.414-2.415
						c-1.33,0-2.412,1.081-2.412,2.415C347.909,560.807,348.991,561.885,350.321,561.885z"/>
					<path class="st8" d="M355.151,561.885c1.333,0,2.411-1.078,2.411-2.411c0-1.334-1.078-2.415-2.411-2.415
						c-1.334,0-2.416,1.081-2.416,2.415C352.735,560.807,353.817,561.885,355.151,561.885z"/>
					<path class="st8" d="M359.974,561.885c1.334,0,2.416-1.078,2.416-2.411c0-1.334-1.082-2.415-2.416-2.415
						c-1.33,0-2.411,1.081-2.411,2.415C357.563,560.807,358.644,561.885,359.974,561.885z"/>
					<circle class="st8" cx="354.25" cy="532.327" r="2.412"/>
					<path class="st8" d="M343.481,529.229c0,1.334,1.078,2.415,2.411,2.415s2.415-1.081,2.415-2.415
						c0-1.33-1.082-2.411-2.415-2.411S343.481,527.898,343.481,529.229z"/>
					<path class="st8" d="M338.654,529.229c0,1.334,1.082,2.415,2.415,2.415c1.33,0,2.412-1.081,2.412-2.415
						c0-1.33-1.082-2.411-2.412-2.411C339.736,526.817,338.654,527.898,338.654,529.229z"/>
					<path class="st8" d="M338.654,534.055c0,1.334,1.082,2.415,2.415,2.415c1.33,0,2.412-1.081,2.412-2.415
						c0-1.329-1.082-2.411-2.412-2.411C339.736,531.644,338.654,532.726,338.654,534.055z"/>
					<path class="st8" d="M333.828,534.055c0,1.334,1.078,2.415,2.411,2.415c1.334,0,2.415-1.081,2.415-2.415
						c0-1.329-1.081-2.411-2.415-2.411C334.906,531.644,333.828,532.726,333.828,534.055z"/>
					<path class="st8" d="M338.654,538.882c0,1.333,1.082,2.415,2.415,2.415c1.33,0,2.412-1.082,2.412-2.415
						c0-1.33-1.082-2.412-2.412-2.412C339.736,536.47,338.654,537.552,338.654,538.882z"/>
					<circle class="st8" cx="344.236" cy="542.341" r="2.411"/>
					<path class="st8" d="M330.658,542.341c0,1.333,1.081,2.411,2.411,2.411c1.334,0,2.415-1.078,2.415-2.411
						s-1.081-2.415-2.415-2.415C331.739,539.926,330.658,541.008,330.658,542.341z"/>
					<path class="st8" d="M333.828,538.882c0,1.333,1.078,2.415,2.411,2.415c1.334,0,2.415-1.082,2.415-2.415
						c0-1.33-1.081-2.412-2.415-2.412C334.906,536.47,333.828,537.552,333.828,538.882z"/>
					<circle class="st8" cx="329.782" cy="545.942" r="2.413"/>
					<circle class="st8" cx="324.956" cy="545.942" r="2.414"/>
					<circle class="st8" cx="321.883" cy="549.593" r="2.411"/>
					<circle class="st8" cx="325.148" cy="553.146" r="2.412"/>
					<circle class="st8" cx="328.605" cy="556.508" r="2.413"/>
					<path class="st8" d="M333.828,519.579c0,1.33,1.078,2.411,2.411,2.411c1.334,0,2.415-1.081,2.415-2.411
						c0-1.333-1.081-2.415-2.415-2.415C334.906,517.164,333.828,518.246,333.828,519.579z"/>
					<circle class="st8" cx="331.415" cy="519.579" r="2.414"/>
					<circle class="st8" cx="328.245" cy="523.253" r="2.414"/>
					<circle class="st8" cx="325.148" cy="526.997" r="2.412"/>
					<circle class="st8" cx="360.372" cy="505.1" r="2.412"/>
					<circle class="st8" cx="355.545" cy="505.1" r="2.415"/>
					<circle class="st8" cx="350.719" cy="505.1" r="2.411"/>
					<circle class="st8" cx="345.895" cy="505.1" r="2.413"/>
				</g>
			</g>
		</g>
		<g>
			<line class="st13" x1="1124.255" y1="358.513" x2="637.25" y2="358.513"/>
			<path class="st12" d="M1151.255,358.499c0-1.429-1.157-2.585-2.586-2.585l0,0c-1.428,0-2.585,1.156-2.585,2.585l0,0
				c0,1.429,1.157,2.585,2.585,2.585l0,0C1150.098,361.084,1151.255,359.928,1151.255,358.499L1151.255,358.499z"/>
			<g>
				<path class="st13" d="M1157.765,358.513c0,0,39.476-1.741,35.992,33.667c-0.055,0.533-0.156,1.595-0.156,1.595l-9.482,65.455"/>
				<line class="st14" x1="1184.097" y1="459.227" x2="1167.648" y2="434.601"/>
			</g>
			<path class="st7" d="M1232.396,514.96c-3-3.496-8.673-3.496-12.666,0l-15.877,13.922l20.373-144.988
				c3.98-28.299-15.809-51.326-44.115-51.326H567.846h-6.351v17.919h3.83h612.269c17.741,0,31.211,15.669,28.714,33.407
				l-20.373,144.988l-11.967-13.922c-3.006-3.496-8.68-3.496-12.673,0.004c-3.993,3.496-4.789,9.17-1.775,12.666l25.102,29.218
				c3.014,3.5,8.687,3.5,12.673,0l33.326-29.218C1234.606,524.134,1235.403,518.46,1232.396,514.96z"/>
		</g>
		<g>
			<path class="st7" d="M167.945,461.09c-2.219,0-3.927-0.67-5.076-1.992c-1.284-1.478-1.734-3.659-1.336-6.483l14.122-100.509
				c0.648-4.599,2.26-8.068,4.79-10.313c2.355-2.092,5.603-3.153,9.652-3.153c0.363,0,0.732,0.009,1.11,0.025l27.53-0.002
				c4.719,0,7.978,1.076,9.965,3.29c2.001,2.24,2.542,5.638,1.612,10.102l-2.358,16.773c-0.631,4.495-2.129,7.846-4.451,9.959
				c-2.168,1.971-5.257,2.969-9.184,2.969c-0.38,0-0.769-0.009-1.167-0.027h-2.509c0.215,0.737,0.302,1.639,0.147,2.731
				c-0.158,1.134-0.922,2.859-7.815,9.929l1.332,1.083l7.516-9.19c2.286-2.763,4.502-4.102,6.783-4.102
				c2.167,0,3.791,0.604,4.828,1.798c0.978,1.125,1.341,2.646,1.078,4.521c-0.171,1.213-0.9,3.214-5.054,7.976
				c-0.403,0.461-0.84,0.95-1.311,1.469c0.05-0.001,0.1-0.001,0.15-0.001c1.092,0,2.704,0.439,4.186,2.53
				c0.91,1.287,1.826,3.277,2.802,6.089c0.417,1.246,0.759,2.326,1.038,3.266c1.226-1.029,3.093-1.779,5.931-1.779h2.87l2.89-2.86
				l-6.841-5.732c-1.651-1.347-2.827-2.454-3.572-3.369c-1.017-1.249-1.441-2.536-1.263-3.825c0.527-3.753,3.05-5.903,6.922-5.903
				c1.439,0,2.543,0.353,3.377,0.826l2.911-3.926c0.65-0.885,1.297-1.659,1.942-2.323c-1.719-0.562-3.096-1.419-4.119-2.567
				c-2.036-2.27-2.599-5.69-1.667-10.161l2.358-16.773c0.619-4.42,2.166-7.736,4.598-9.855c2.248-1.95,5.299-2.938,9.073-2.938
				c0.363,0,0.733,0.009,1.112,0.026l29.02-0.002c4.747,0,8.205,1.176,10.28,3.496c2.112,2.37,2.699,5.924,1.747,10.566
				l-13.045,92.826c-0.674,9.948-5.994,15.205-15.39,15.205c-0.649,0-1.328-0.025-2.019-0.075h-6.729
				c-2.713,0-4.722-0.729-5.97-2.164c-1.151-1.325-1.574-3.131-1.259-5.367c0.62-4.412,3.511-6.843,8.141-6.843h5.17
				c1.145,0,2.024-0.28,2.689-0.857c0.664-0.577,1.064-1.406,1.221-2.534l3.099-22.05c-0.121,0.111-0.247,0.218-0.379,0.321
				c-1.271,0.997-2.79,1.502-4.514,1.502c-0.633,0-1.321-0.099-2.006-0.375c0.069,0.738,0.042,1.549-0.082,2.428l-1.193,8.487
				c-1.036,7.385-5.573,11.289-13.12,11.289h-11.458l-1.367,9.728c-0.57,4.064-3.242,6.303-7.521,6.303
				c-2.208,0-3.873-0.628-4.949-1.865c-1.057-1.216-1.444-2.896-1.15-4.993l4.184-29.776c0.171-1.224,0.56-2.308,1.16-3.238
				c-0.652-0.253-1.167-0.595-1.566-0.947c-0.769,0.843-1.886,1.542-3.506,1.85c0.282,1.146,0.309,2.507,0.084,4.104
				c-1.883,13.396-6.767,22.624-14.514,27.428c-7.94,4.937-15.086,7.439-21.238,7.439c-2.544,0-3.898-1.156-4.585-2.126
				c-0.906-1.279-1.22-2.962-0.933-5.002c0.209-1.507,0.845-2.814,1.892-3.883c1.034-1.068,2.346-1.74,3.892-1.99
				c3.589-0.679,6.927-1.717,9.867-3.076c0.724-0.335,1.406-0.68,2.046-1.034h-4.2c-3.698,0-6.443-1.002-8.16-2.977
				c-1.698-1.954-2.303-4.756-1.8-8.33l1.058-7.542c0.183-1.298,0.554-2.437,1.108-3.404l-0.417,0.02
				c-0.153,0.01-0.34,0.017-0.522,0.017c-2.307,0-3.661-1.005-4.391-1.848c-0.259-0.297-0.481-0.617-0.666-0.959l-4.883,34.757
				C175,460.062,170.526,461.09,167.945,461.09z M247.503,432.165c0.458,0,0.657-0.092,0.691-0.124
				c0.043-0.041,0.262-0.28,0.461-1.081l0.951-6.773c0.288-2.039,1.038-3.704,2.23-4.948c0.234-0.244,0.482-0.466,0.744-0.666
				l-13.385,1.621c0.682,1.152,0.907,2.586,0.669,4.277l-1.081,7.694H247.503z M197.86,431.065c0.104,0.011,0.238,0.019,0.408,0.019
				h9.314c0.652-2.677,1.063-4.418,1.276-5.421c0.879-4.378,2.639-6.555,4.508-7.559l-15.596,1.927
				c0.898,1.327,1.201,3.044,0.909,5.115l-0.793,5.656C197.873,430.906,197.865,430.993,197.86,431.065z M262.532,397.805
				c3.69,0,5.733,4.769,7.101,8.923c0.661,1.971,1.135,3.559,1.473,4.849l4.194-29.846h-22.132c0.177,0.71,0.239,1.566,0.094,2.593
				c-0.15,1.068-0.913,2.342-2.55,4.255c-1.108,1.299-2.857,3.213-5.21,5.703l1.351,1.177l7.575-9.311
				c2.289-2.766,4.505-4.104,6.787-4.104c2.165,0,3.787,0.604,4.824,1.797c0.979,1.125,1.341,2.646,1.078,4.522
				c-0.202,1.437-1.352,3.808-6.697,9.699C261.063,397.892,261.769,397.805,262.532,397.805z M181.975,410.433
				c0.277-0.293,0.585-0.561,0.924-0.802c1.337-0.962,3.062-1.452,5.118-1.452h4.632l2.894-2.932l-6.705-5.663
				c-1.613-1.312-2.797-2.403-3.591-3.315c-0.466-0.534-0.818-1.077-1.054-1.625L181.975,410.433z M211.919,404.478
				c-0.826,0.838-1.696,1.713-2.611,2.626l3.04-0.229C212.122,405.721,211.992,404.978,211.919,404.478z M256.213,402.523
				c-1.332,1.37-2.825,2.876-4.497,4.529l4.839-0.326c-0.549-2.894-0.507-3.202-0.459-3.552
				C256.127,402.951,256.166,402.734,256.213,402.523z M184.937,389.348c1.176-1.844,3.197-2.855,5.855-2.855
				c1.061,0,2.166,0.328,3.345,0.996l3.1-4.336c0.379-0.51,0.765-0.984,1.155-1.423l-12.385,0.001L184.937,389.348z
				 M249.705,368.021c-0.113,0.806,0.001,1.184,0.077,1.271c0.066,0.076,0.378,0.221,1.084,0.221h26.152l0.422-3.007h-27.524
				L249.705,368.021z M211.819,369.513c1.549,0,2.144-0.517,2.359-2.047l0.134-0.96h-26.167l-0.422,3.007H211.819z M279.175,354.152
				l0.193-1.373c0.098-0.699-0.003-1.029-0.069-1.106c-0.077-0.088-0.437-0.255-1.249-0.255h-24.082c-1.634,0-2.016,0.6-2.181,1.78
				l-0.135,0.954H279.175z M216.047,354.152l0.213-1.511c0.089-0.64-0.009-0.916-0.055-0.968c-0.062-0.071-0.413-0.256-1.285-0.256
				h-22.584c-1.741,0-2.166,0.674-2.34,1.917l-0.115,0.817H216.047z"/>
			<path class="st9" d="M251.734,340.639c0.332,0,0.67,0.008,1.017,0.024h29.115c4.17,0,7.102,0.942,8.789,2.829
				c1.68,1.885,2.105,4.851,1.266,8.892l-13.064,92.962c-0.583,8.938-5.051,13.411-13.399,13.411c-0.627,0-1.274-0.024-1.945-0.075
				h-6.803c-3.993,0-5.742-1.748-5.248-5.252c0.479-3.414,2.533-5.122,6.16-5.122h5.17c1.632,0,2.965-0.448,4-1.347
				c1.033-0.898,1.666-2.156,1.891-3.769l8.918-63.462h-30.34c-3.992,0-6.792-0.895-8.395-2.694
				c-1.611-1.796-2.006-4.622-1.189-8.486l2.367-16.84c0.554-3.952,1.863-6.823,3.932-8.626
				C245.854,341.453,248.44,340.639,251.734,340.639 M249.35,356.152h31.563l0.436-3.095c0.34-2.429-0.762-3.64-3.299-3.64h-24.082
				c-2.448,0-3.836,1.17-4.162,3.503L249.35,356.152 M279.74,364.506h-31.564l-0.452,3.238c-0.354,2.514,0.693,3.769,3.143,3.769
				h27.891L279.74,364.506 M190.097,340.64c0.333,0,0.674,0.008,1.021,0.023h27.619c4.082,0,6.904,0.874,8.477,2.626
				c1.564,1.751,1.945,4.558,1.129,8.421l-2.367,16.84c-0.568,4.045-1.844,6.963-3.816,8.759c-1.794,1.63-4.405,2.447-7.837,2.447
				c-0.35,0-0.708-0.009-1.075-0.025h-28.979l-10.279,73.162c-0.581,4.129-2.598,6.197-6.044,6.197
				c-3.537,0-5.013-2.068-4.432-6.197l14.122-100.509c0.582-4.129,1.959-7.163,4.137-9.095
				C183.762,341.521,186.538,340.64,190.097,340.64 M187.581,356.152h30.204l0.456-3.231c0.326-2.333-0.783-3.503-3.32-3.503
				h-22.584c-2.538,0-3.98,1.211-4.32,3.64L187.581,356.152 M216.612,364.506h-30.205l-0.982,7.007h26.395
				c2.537,0,3.986-1.255,4.34-3.769L216.612,364.506 M247.513,379.866c1.36,0,2.374,0.36,3.047,1.078
				c0.668,0.722,0.912,1.752,0.722,3.099c-0.089,0.633-0.782,1.708-2.089,3.235c-1.303,1.526-3.496,3.907-6.578,7.139l4.483,3.908
				l8.881-10.915c1.854-2.241,3.603-3.367,5.235-3.367c2.992,0,4.299,1.348,3.921,4.041c-0.354,2.517-6.618,9.66-18.792,21.422
				l0.701-0.133l11.948-0.807l-0.255-1.081c-0.477-2.422-0.697-3.769-0.66-4.041c0.34-2.425,1.823-3.64,4.455-3.64
				c1.816,0,3.545,2.518,5.201,7.548c1.596,4.762,2.296,7.86,2.096,9.296c-0.178,1.259-0.725,2.245-1.643,2.966
				c-0.919,0.721-2.011,1.075-3.279,1.075c-2.088,0-3.482-1.704-4.178-5.119l-27.822,3.37l-2.741,0.133
				c-0.142,0.009-0.281,0.014-0.416,0.014c-1.257,0-2.22-0.386-2.89-1.159c-0.746-0.851-1.008-2.041-0.789-3.572
				c0.4-2.87,2.462-4.309,6.184-4.309h3.809l0.018-0.133l4.9-4.851l-8.523-7.143c-1.544-1.259-2.649-2.293-3.306-3.099
				c-0.656-0.807-0.933-1.568-0.833-2.289c0.391-2.782,2.037-4.177,4.941-4.177c1.449,0,2.564,0.448,3.348,1.347l0.354,0.401
				l4.193-5.656C243.397,381.396,245.52,379.866,247.513,379.866 M204.911,380.002c1.36,0,2.398,0.361,3.112,1.075
				c0.714,0.722,0.979,1.755,0.789,3.103c-0.163,1.17-3.099,4.625-8.803,10.374l4.64,3.771l0.02-0.133l8.705-10.646
				c1.857-2.245,3.602-3.367,5.234-3.367c2.993,0,4.303,1.347,3.925,4.04c-0.19,1.348-1.721,3.66-4.581,6.939
				c-2.867,3.278-7.507,8.064-13.922,14.347l10.725-0.807c-0.646-3.143-0.949-4.85-0.912-5.119c0.34-2.425,1.823-3.639,4.456-3.639
				c0.905,0,1.759,0.564,2.554,1.687c0.793,1.122,1.641,2.986,2.545,5.589c1.533,4.581,2.217,7.459,2.055,8.622
				c-0.367,2.608-2.045,3.908-5.037,3.908c-2.178,0-3.486-1.347-3.922-4.044l-27.279,3.37l-2.874,0.133
				c-0.147,0.01-0.29,0.015-0.43,0.015c-1.253,0-2.212-0.387-2.88-1.157c-0.741-0.851-1.007-2.041-0.789-3.571
				c0.201-1.436,0.803-2.511,1.816-3.231c1.004-0.722,2.326-1.082,3.959-1.082h5.442l0.156-0.132l4.919-4.983l-1.232-0.945
				l-7.173-6.062c-1.548-1.259-2.67-2.293-3.374-3.102c-0.704-0.807-1.004-1.568-0.901-2.286c0.388-2.782,2.034-4.177,4.938-4.177
				c1.089,0,2.367,0.585,3.837,1.748l4.235-5.925c1.003-1.347,2.037-2.401,3.098-3.17
				C203.021,380.387,204.003,380.002,204.911,380.002 M256.951,419.206c3.081,0,4.378,1.755,3.888,5.259l-1.193,8.486
				c-0.895,6.377-4.609,9.567-11.14,9.567h-13.197l-1.608,11.449c-0.429,3.054-2.275,4.581-5.541,4.581
				c-3.177,0-4.547-1.527-4.119-4.581l4.184-29.775c0.201-1.436,0.772-2.578,1.707-3.436c0.936-0.851,2.174-1.278,3.719-1.278
				c1.54,0,2.684,0.401,3.435,1.211c0.749,0.81,1.014,1.979,0.8,3.503l-1.401,9.973h11.021c0.904,0,1.595-0.225,2.067-0.673
				c0.474-0.449,0.819-1.171,1.052-2.157l0.965-6.87c0.229-1.619,0.789-2.898,1.694-3.844
				C254.187,419.679,255.407,419.206,256.951,419.206 M216.526,419.342c3.17,0,4.477,2.021,3.908,6.062
				c-1.807,12.851-6.336,21.51-13.588,26.007c-7.653,4.758-14.381,7.139-20.184,7.139c-1.36,0-2.348-0.428-2.953-1.282
				c-0.604-0.854-0.799-2.04-0.584-3.567c0.149-1.078,0.598-2.004,1.34-2.762c0.741-0.766,1.67-1.235,2.782-1.415
				c3.819-0.722,7.282-1.8,10.388-3.235c3.102-1.436,5.507-3.051,7.211-4.85h-10.204c-6.17,0-8.827-3.007-7.979-9.027l1.058-7.544
				c0.228-1.616,0.789-2.871,1.687-3.772c0.895-0.895,2.072-1.347,3.524-1.347c1.449,0,2.497,0.452,3.144,1.347
				c0.643,0.901,0.854,2.156,0.625,3.772l-0.793,5.659c-0.129,0.898-0.014,1.551,0.338,1.953c0.35,0.404,1.023,0.605,2.023,0.605
				h10.884c0.837-3.408,1.395-5.745,1.663-7.004C211.718,421.587,213.622,419.342,216.526,419.342 M251.734,336.639
				c-4.27,0-7.762,1.151-10.38,3.424c-2.812,2.451-4.583,6.182-5.271,11.093l-2.349,16.707c-1.049,5.098-0.324,9.082,2.155,11.845
				c0.672,0.755,1.459,1.404,2.361,1.947c-0.106,0.14-0.212,0.281-0.318,0.426l-1.966,2.652c-0.782-0.233-1.68-0.376-2.705-0.376
				c-2.81,0-5.103,0.935-6.674,2.631c-0.091-2.069-0.895-3.463-1.642-4.322c-0.441-0.507-0.948-0.938-1.519-1.29
				c0.504-0.334,0.979-0.702,1.422-1.105c2.679-2.439,4.389-6.194,5.087-11.163l2.349-16.709c1.047-5.089,0.345-9.049-2.089-11.773
				c-2.394-2.667-6.14-3.961-11.459-3.961h-27.534c-0.375-0.016-0.744-0.023-1.106-0.023c-4.553,0-8.248,1.231-10.981,3.659
				c-2.894,2.566-4.725,6.445-5.441,11.526l-14.122,100.511c-0.482,3.423,0.126,6.14,1.808,8.073
				c1.063,1.224,3.067,2.681,6.585,2.681c2.6,0,8.78-0.939,10.005-9.64l4.356-31.005c0.498,0.24,1.062,0.441,1.697,0.579
				c-0.1,0.414-0.181,0.842-0.244,1.284l-1.058,7.546c-0.587,4.171,0.177,7.508,2.271,9.918c1.25,1.438,2.897,2.456,4.924,3.049
				c-1.081,0.289-2.198,0.544-3.347,0.763c-1.956,0.327-3.624,1.192-4.958,2.571c-1.317,1.345-2.162,3.078-2.428,4.995
				c-0.359,2.554,0.071,4.72,1.282,6.428c0.786,1.11,2.639,2.971,6.217,2.971c6.623,0,13.916-2.532,22.295-7.741
				c6.617-4.104,11.266-11.137,13.869-20.958l-2.749,19.562c-0.471,3.36,0.622,5.436,1.622,6.585
				c1.474,1.693,3.646,2.553,6.458,2.553c5.245,0,8.797-3,9.502-8.025l1.125-8.005h9.72c0.863,0,1.693-0.047,2.49-0.14
				c-1.877,1.474-3.101,3.688-3.495,6.494c-0.498,3.53,0.666,5.731,1.729,6.956c1.645,1.893,4.161,2.853,7.479,2.853h6.658
				c0.713,0.05,1.416,0.075,2.09,0.075c10.444,0,16.611-6.034,17.38-16.997l13.027-92.695c1.068-5.265,0.32-9.38-2.223-12.233
				c-2.475-2.768-6.436-4.168-11.775-4.168h-29.024C252.466,336.646,252.096,336.639,251.734,336.639L251.734,336.639z
				 M268.373,383.73h4.626l-2.683,19.096c-1.268-2.963-3.014-5.668-5.626-6.641c3.557-4.302,4.212-6.168,4.406-7.545
				C269.4,386.474,268.979,384.87,268.373,383.73L268.373,383.73z M187.746,383.73h6.619l-0.894,1.25
				c-0.906-0.327-1.796-0.488-2.68-0.488c-1.167,0-2.246,0.161-3.219,0.472L187.746,383.73L187.746,383.73z M221.694,396.941
				c1.075-1.27,1.95-2.397,2.647-3.418c0.127,1.111,0.58,2.436,1.708,3.823c0.83,1.019,2.093,2.215,3.86,3.657l5.137,4.306
				l-0.745,0.737h-2.047c-1.785,0-3.383,0.286-4.757,0.831c-0.098-0.301-0.2-0.61-0.308-0.931c-1.054-3.034-2.054-5.188-3.071-6.628
				C223.337,398.215,222.508,397.456,221.694,396.941L221.694,396.941z M184.525,406.653l1.019-7.256
				c0.589,0.536,1.264,1.114,2.031,1.738l5.024,4.246l-0.787,0.797h-3.796C186.756,406.179,185.589,406.338,184.525,406.653
				L184.525,406.653z M200.595,421.697l7.791-0.962c-0.61,1.229-1.125,2.729-1.492,4.558c-0.16,0.75-0.448,1.986-0.883,3.791h-5.862
				l0.513-3.663C200.853,424.07,200.83,422.826,200.595,421.697L200.595,421.697z M241.857,421.886l6.488-0.786
				c-0.336,0.861-0.576,1.798-0.719,2.807l-0.879,6.259h-5.663l0.761-5.416C241.996,423.67,241.982,422.72,241.857,421.886
				L241.857,421.886z M264.907,424.689c0.829,0,1.622-0.094,2.375-0.279l-2.561,18.226c-0.131,0.938-0.45,1.216-0.554,1.307
				c-0.102,0.089-0.421,0.365-1.375,0.365h-5.17c-0.125,0-0.249,0.002-0.372,0.005c3.466-2.143,5.655-5.805,6.357-10.806
				l1.193-8.485c0.016-0.111,0.03-0.223,0.043-0.332C264.864,424.689,264.886,424.689,264.907,424.689L264.907,424.689z"/>
		</g>
		<g>
			<path class="st7" d="M329.223,459.471c-2.321,0-4.083-0.674-5.238-2.002c-1.193-1.372-1.621-3.323-1.273-5.8
				c0.397-2.81,2.458-6.297,10.024-6.969c2.464-0.211,3.652-0.445,4.216-0.605c0.6-0.171,1.047-0.402,1.329-0.69
				c0.372-0.35,1.542-1.85,3.613-8.99c1.641-5.95,3.716-15.551,6.163-28.511c0.579-2.843,0.971-4.979,1.17-6.38
				c0.091-0.655,0.042-1.169-0.133-1.37c-0.164-0.188-0.69-0.39-1.676-0.39h-8.534c-2.834,15.225-7.777,29.064-14.703,41.163
				c-7.026,12.181-12.609,17.851-17.573,17.851c-2.279,0-4.02-0.673-5.172-1.999c-1.23-1.415-1.667-3.46-1.298-6.076
				c0.273-1.956,1.607-4.255,4.199-7.231c9.74-10.992,16.191-25.123,19.186-42.016l2.62-15.74
				c0.934-5.588,1.661-10.145,2.207-13.838h-7.895c-2.633,0-4.533-0.57-5.809-1.742c-1.393-1.268-1.932-3.127-1.594-5.521
				c0.352-2.504,1.963-6.707,8.804-6.707h14.996L338.804,342c0.695-4.934,3.676-7.65,8.395-7.65c2.389,0,4.206,0.696,5.398,2.068
				c1.25,1.439,1.696,3.505,1.325,6.14l-1.875,13.35h16.067c2.833,0,4.91,0.736,6.173,2.188c1.109,1.276,1.523,2.983,1.229,5.075
				c-0.318,2.256-1.271,3.975-2.832,5.109c-1.456,1.06-3.465,1.597-5.972,1.597h-23.311l-1.942,12.961l-0.03,0.11
				c-0.061,0.224-0.124,0.507-0.191,0.847h12.886c4.314,0,7.47,1.113,9.378,3.308c0.352,0.404,0.658,0.841,0.92,1.31
				c0.764-1.188,1.852-2.416,3.273-3.698c12.365-11.905,21.821-26.699,28.058-43.926c2.021-5.326,5.193-6.438,7.5-6.438
				c2.653,0,4.599,0.69,5.783,2.053c1.031,1.187,1.417,2.758,1.148,4.671l-0.02,0.142l-0.933,3.218
				c4.877,16.746,12.806,30.444,23.574,40.726c2.405,2.12,3.484,4.439,3.148,6.843c-0.684,4.849-3.659,7.519-8.375,7.519
				c-5.45,0-11.75-6.838-19.828-21.52c-2.303-4.039-4.486-9.553-6.502-16.419c-4.996,9.256-10.597,17.717-16.69,25.207
				c-3.289,4.001-6.063,6.984-8.485,9.127c-2.808,2.492-4.841,3.604-6.591,3.604c-1.938,0-3.48-0.489-4.596-1.455
				c-0.001,0.005-0.002,0.011-0.004,0.016c-0.18,0.688-0.318,1.386-0.426,2.144c-1.608,8.85-3.493,18.013-5.615,27.312
				c-2.169,9.503-4.036,15.987-5.708,19.823C349.6,455.397,341.556,459.471,329.223,459.471z M413.518,458.934
				c-1.849,0-4.215-0.854-7.449-2.689c-9.492-5.284-21.834-10.306-36.671-14.917c-4.811-1.493-5.089-4.879-4.827-6.764
				c0.657-4.676,3.666-7.249,8.471-7.249c3.634,0,10.372,1.848,20.601,5.649c10.017,3.777,17.142,6.808,21.187,9.009
				c1.871,1.037,7.524,4.172,6.845,9.04c-0.34,2.401-1.201,4.318-2.561,5.703C417.665,458.188,415.782,458.934,413.518,458.934z
				 M407.052,419.875c-1.319,0-3.526-0.521-8.935-4.595c-3.992-3.064-7.741-5.81-11.157-8.17c-2.004-1.382-3.401-2.6-4.269-3.721
				c-1.068-1.383-1.481-2.997-1.229-4.8c0.246-1.709,1.126-3.146,2.618-4.281c1.413-1.074,3.182-1.619,5.258-1.619
				c1.555,0,3.544,0.513,6.082,1.568c2.402,0.994,5.02,2.493,7.997,4.584c4.26,2.968,7.197,5.296,8.974,7.112
				c2.101,2.152,3.059,4.107,2.933,5.979c-0.226,2.417-1.016,4.284-2.353,5.603c-1.34,1.316-3.18,2.095-5.472,2.315
				C407.405,419.863,407.233,419.875,407.052,419.875z"/>
			<path class="st9" d="M403.253,336.35c3.714,0,5.367,1.483,4.951,4.445l-1.054,3.637c4.986,17.428,13.078,31.482,24.275,42.173
				c1.935,1.707,2.786,3.415,2.548,5.119c-0.545,3.863-2.678,5.796-6.395,5.796c-4.537,0-10.562-6.826-18.075-20.483
				c-2.765-4.85-5.326-11.809-7.677-20.884c-5.533,10.963-11.806,20.752-18.819,29.374c-3.177,3.864-5.925,6.826-8.259,8.891
				c-2.33,2.068-4.088,3.103-5.266,3.103c-3.448,0-4.91-1.844-4.395-5.527c0.242-1.704,1.555-3.636,3.946-5.793
				c12.687-12.214,22.224-27.122,28.599-44.73C398.929,338.058,400.804,336.35,403.253,336.35 M347.198,336.35
				c3.715,0,5.3,1.977,4.742,5.929l-2.194,15.629h18.367c4.081,0,5.888,1.663,5.422,4.986c-0.241,1.708-0.915,2.96-2.027,3.769
				c-1.112,0.81-2.711,1.215-4.796,1.215h-25.033l-2.181,14.551c-0.194,0.721-0.395,1.84-0.612,3.367h15.238
				c7.074,0,10.17,3.146,9.289,9.432c-0.113,0.81-0.272,1.599-0.467,2.357c-0.2,0.766-0.354,1.548-0.469,2.357
				c-1.602,8.806-3.463,17.85-5.585,27.148c-2.122,9.297-3.986,15.786-5.592,19.47c-3.197,7.272-10.562,10.911-22.078,10.911
				c-3.538,0-5.048-1.844-4.53-5.523c0.432-3.055,3.17-4.807,8.221-5.255c2.112-0.181,3.639-0.405,4.585-0.674
				s1.681-0.673,2.211-1.214c1.149-1.075,2.517-4.354,4.105-9.834c1.659-6.017,3.731-15.581,6.207-28.696
				c0.585-2.871,0.979-5.027,1.185-6.47c0.377-2.693-0.885-4.041-3.789-4.041h-10.205c-2.752,15.722-7.673,29.775-14.768,42.17
				c-6.477,11.228-11.756,16.844-15.837,16.844c-3.538,0-5.034-1.932-4.489-5.796c0.213-1.527,1.455-3.589,3.727-6.197
				c10.027-11.316,16.572-25.64,19.646-42.979l2.623-15.762c1.111-6.646,1.962-12.033,2.544-16.166h-10.204
				c-2.088,0-3.574-0.405-4.455-1.215c-0.889-0.809-1.208-2.061-0.967-3.769c0.467-3.323,2.742-4.986,6.823-4.986h16.734
				l2.194-15.629C341.341,338.326,343.478,336.35,347.198,336.35 M389.337,394.689c1.27,0,3.041,0.47,5.313,1.415
				c2.269,0.938,4.806,2.401,7.616,4.374c4.129,2.877,7.026,5.17,8.693,6.874c1.666,1.707,2.452,3.187,2.367,4.445
				c-0.177,1.885-0.762,3.327-1.762,4.313c-1.004,0.986-2.422,1.571-4.259,1.748c-0.081,0.011-0.166,0.016-0.255,0.016
				c-1.447,0-4.022-1.399-7.731-4.192c-4.095-3.144-7.837-5.878-11.224-8.218c-1.82-1.255-3.096-2.357-3.824-3.299
				c-0.73-0.946-1.006-2.041-0.83-3.3c0.168-1.17,0.783-2.156,1.848-2.966S387.705,394.689,389.337,394.689 M373.042,429.314
				c3.354,0,9.993,1.841,19.904,5.524c9.993,3.769,16.966,6.734,20.928,8.891c4.208,2.333,6.146,4.667,5.82,7.007
				c-0.279,1.973-0.952,3.504-2.007,4.578c-1.062,1.078-2.448,1.619-4.17,1.619c-1.456,0-3.608-0.81-6.462-2.429
				c-9.678-5.388-22.031-10.415-37.064-15.088c-2.609-0.81-3.752-2.333-3.439-4.578
				C367.069,431.155,369.232,429.314,373.042,429.314 M403.253,332.35c-2.404,0-6.815,1-9.359,7.699l-0.011,0.029l-0.011,0.029
				c-6.124,16.915-15.399,31.438-27.567,43.167c-0.702,0.636-1.332,1.265-1.891,1.888c-2.32-2.235-5.776-3.367-10.291-3.367h-10.486
				l1.486-9.918h21.588c2.938,0,5.344-0.666,7.15-1.98c1.384-1.006,3.14-2.942,3.634-6.443c0.47-3.355-0.666-5.479-1.701-6.67
				c-1.66-1.908-4.244-2.876-7.682-2.876h-13.766l1.554-11.073c0.456-3.23-0.148-5.831-1.795-7.728
				c-1.093-1.258-3.178-2.757-6.908-2.757c-5.755,0-9.536,3.416-10.375,9.371l-1.711,12.187h-13.257
				c-8.665,0-10.428,5.896-10.784,8.43c-0.543,3.844,0.916,6.083,2.236,7.284c1.647,1.514,3.99,2.256,7.147,2.256h5.571
				c-0.494,3.23-1.108,7.037-1.856,11.506l-2.624,15.766c-2.922,16.481-9.214,30.284-18.694,40.983
				c-2.881,3.308-4.365,5.936-4.695,8.298c-0.452,3.209,0.143,5.788,1.77,7.661c1.065,1.226,3.089,2.687,6.682,2.687
				c5.831,0,11.784-5.813,19.302-18.845c6.794-11.87,11.707-25.366,14.627-40.169h6.632c-0.209,1.347-0.568,3.267-1.066,5.712
				l-0.006,0.028l-0.005,0.028c-2.432,12.887-4.493,22.424-6.125,28.349c-1.836,6.326-2.86,7.821-3.038,8.048l-0.015,0.014
				l-0.058,0.06c0-0.001,0-0.001,0-0.001c-0.007,0-0.138,0.081-0.449,0.17c-0.393,0.111-1.414,0.329-3.834,0.536
				c-9.354,0.83-11.433,5.795-11.84,8.681c-0.433,3.078,0.154,5.564,1.744,7.394c1.551,1.784,3.821,2.689,6.747,2.689
				c13.199,0,21.859-4.476,25.74-13.301c1.727-3.963,3.632-10.563,5.83-20.189c2.095-9.181,3.959-18.229,5.544-26.905
				c0.881,0.273,1.921,0.444,3.146,0.444c2.275,0,4.718-1.268,7.921-4.111c2.498-2.209,5.343-5.267,8.693-9.342
				c5.269-6.477,10.167-13.656,14.629-21.435c1.655,4.966,3.404,9.05,5.287,12.358c8.575,15.581,15.227,22.529,21.566,22.529
				c5.753,0,9.527-3.367,10.355-9.237c0.298-2.13-0.124-5.346-3.799-8.621c-10.365-9.915-18.039-23.108-22.82-39.232l0.73-2.521
				l0.08-0.274l0.04-0.282c0.439-3.13-0.638-5.132-1.619-6.261C408.964,333.271,406.511,332.35,403.253,332.35L403.253,332.35z
				 M389.337,390.689c-2.523,0-4.7,0.682-6.468,2.027c-1.898,1.443-3.069,3.373-3.386,5.581c-0.326,2.337,0.236,4.515,1.623,6.313
				c0.999,1.29,2.542,2.646,4.72,4.147c3.386,2.34,7.107,5.064,11.058,8.098c4.682,3.525,7.713,5.02,10.167,5.02
				c0.233,0,0.466-0.013,0.693-0.039c2.734-0.273,4.963-1.239,6.624-2.871c1.687-1.663,2.674-3.947,2.941-6.794l0.005-0.052
				l0.003-0.052c0.167-2.472-0.977-4.928-3.495-7.509c-1.869-1.91-4.9-4.317-9.27-7.362c-3.088-2.167-5.831-3.736-8.374-4.788
				C393.401,391.253,391.161,390.689,389.337,390.689L389.337,390.689z M373.042,425.314c-5.841,0-9.65,3.269-10.451,8.968
				c-0.587,4.22,1.736,7.565,6.215,8.955c14.704,4.57,26.918,9.537,36.304,14.763c3.519,1.996,6.199,2.934,8.408,2.934
				c2.781,0,5.208-0.973,7.02-2.813c1.669-1.7,2.717-3.995,3.117-6.824c0.577-4.141-2.061-7.861-7.841-11.065
				c-4.21-2.292-11.22-5.275-21.456-9.136C380.412,425.913,375.515,425.314,373.042,425.314L373.042,425.314z"/>
		</g>
		<g>
			<path class="st7" d="M473.29,422.929c-0.542,0-1.099-0.016-1.671-0.046h-8.108c-2.916,0-5.066-0.772-6.392-2.297
				c-1.209-1.391-1.655-3.289-1.324-5.642c0.682-4.846,3.995-7.514,9.327-7.514h6.395c2.29,0,3.427-1.001,3.916-3.451l2.928-20.842
				c-6.299,1.56-13.879,3.174-22.59,4.808c-0.518,0.12-1.134,0.176-1.933,0.176c-2.806,0-4.265-1.335-4.996-2.454
				c-0.938-1.443-1.257-3.286-0.951-5.479c0.299-2.124,1.277-3.868,2.907-5.187c1.505-1.213,3.634-2.053,6.512-2.57
				c9.505-1.698,17.102-3.108,23.159-4.296l2.72-19.354h-21.645c-2.969,0-5.144-0.771-6.466-2.29
				c-1.167-1.343-1.602-3.15-1.29-5.374c0.37-2.608,2.063-6.979,9.253-6.979h22.207l2.024-14.4c-1.352,0.186-3.056,0.428-5.138,0.73
				c-5.38,0.712-9.784,1.214-13.114,1.497c-0.336,0.022-0.628,0.033-0.909,0.033c-2.245,0-3.954-0.656-5.081-1.952
				c-1.177-1.354-1.6-3.285-1.255-5.743c0.352-2.503,1.65-4.406,3.756-5.511c1.039-0.609,3.127-1.361,9.753-1.862
				c15.072-1.065,27.048-3.158,35.605-6.222c2.758-0.998,4.678-1.464,6.036-1.464c2.455,0,4.305,0.697,5.499,2.071
				c1.193,1.374,1.624,3.303,1.281,5.732c-0.179,1.282-0.675,2.401-1.474,3.32c-0.693,0.802-1.686,1.579-2.948,2.309
				c-1.264,0.729-3.187,1.414-5.879,2.092c-2.266,0.575-5.775,1.332-10.7,2.309l-2.396,17.061h25.371
				c0.922-11.824,1.898-21.437,2.905-28.594c1.037-7.358,5.773-8.457,8.504-8.457c3.351,0,5.022,1.431,5.834,2.631
				c1.086,1.606,1.413,3.827,0.998,6.79c-1.116,7.917-2.182,17.202-3.173,27.63h31.409c3.04,0,5.26,0.782,6.6,2.324
				c1.167,1.343,1.6,3.142,1.289,5.347c-0.367,2.604-2.074,6.972-9.385,6.972h-30.723c-0.222,7.722,0.173,15.109,1.177,22.034
				c3.329-3.343,6.334-6.672,8.961-9.929c4-4.923,7.158-7.214,9.944-7.214c2.524,0,4.334,0.52,5.534,1.587
				c0.918,0.826,1.924,2.382,1.538,5.14c-0.394,2.791-3.298,8.28-22.228,26.062c1.919,6.119,3.812,10.755,5.632,13.792
				c1.541,2.567,3.082,4.009,4.354,4.076c0.346-0.197,2.063-1.604,4.795-10.823c0.621-2.082,1.561-3.655,2.793-4.679
				c1.288-1.064,2.915-1.604,4.839-1.604c2.3,0,4.051,0.673,5.205,1.999c1.211,1.394,1.644,3.391,1.286,5.936
				c-0.893,6.368-3.187,12.484-6.817,18.178c-3.756,5.975-8.003,9.01-12.618,9.01c-2.266,0-4.587-0.71-6.9-2.109
				c-2.22-1.343-4.348-3.35-6.325-5.964c-3.461-4.544-6.526-10.152-9.129-16.699c-2.391,2.015-4.614,3.776-6.631,5.253
				c-2.593,1.899-6.095,4.197-10.408,6.832c-4.085,2.518-7.239,4.374-9.368,5.513c-2.496,1.328-4.18,1.92-5.464,1.92
				c-2.3,0-4.051-0.673-5.204-2c-1.212-1.395-1.645-3.393-1.286-5.939c0.428-3.059,3.002-5.715,7.871-8.116
				c7.201-3.491,16.018-9.529,26.23-17.959c-2.202-9.989-3.184-21.511-2.921-34.295h-26.549l-2.217,15.778
				c1.609-0.419,3.75-0.973,6.423-1.66l0.252-0.073c0.851-0.242,1.762-0.502,2.729-0.786c1.134-0.327,2.338-0.632,3.587-0.909
				c1.167-0.278,1.667-0.315,1.97-0.315c1.852,0,3.348,0.772,4.327,2.233c0.882,1.322,1.168,3.104,0.856,5.301
				c-0.484,3.476-3.354,5.895-8.53,7.182l-13.658,3.569l-4.076,28.993c-0.722,5.155-2.611,9.025-5.617,11.502
				C481.614,421.808,477.911,422.929,473.29,422.929z M564.451,331c-1.414,0-2.873-0.824-4.46-2.521
				c-1.259-1.333-2.792-3.358-4.676-6.186c-2.154-3.22-3.589-5.53-4.383-7.059c-0.955-1.823-1.324-3.407-1.124-4.837
				c0.236-1.684,1.141-3.164,2.618-4.281c1.424-1.075,2.963-1.62,4.574-1.62c3.09,0,6.436,2.522,10.527,7.938
				c5.326,7.038,5.753,9.748,5.531,11.322C572.401,328.427,569.345,331,564.451,331z"/>
			<path class="st9" d="M537.087,299.088c1.994,0,3.389,0.586,4.178,1.752c0.789,1.167,1.014,2.963,0.674,5.392
				c-1.215,8.618-2.341,18.592-3.389,29.907h33.605c4.441,0,6.415,1.8,5.908,5.392c-0.493,3.5-2.963,5.251-7.404,5.251h-32.653
				c-0.419,10.062,0.171,19.449,1.755,28.16c4.504-4.31,8.463-8.575,11.871-12.799c3.504-4.313,6.299-6.47,8.388-6.47
				c1.993,0,3.395,0.36,4.204,1.081c0.803,0.722,1.102,1.841,0.888,3.368c-0.507,3.592-8.017,12.17-22.527,25.734
				c2.108,6.918,4.177,12.054,6.197,15.425c2.021,3.367,4.075,5.051,6.163,5.051c1.994,0,4.197-4.085,6.619-12.258
				c0.51-1.708,1.231-2.942,2.153-3.708c0.921-0.762,2.112-1.143,3.562-1.143c3.537,0,5.04,1.884,4.51,5.656
				c-0.857,6.112-3.031,11.904-6.523,17.381c-3.389,5.391-7.034,8.085-10.932,8.085c-1.905,0-3.857-0.605-5.865-1.82
				c-2.006-1.214-3.928-3.03-5.765-5.459c-3.829-5.027-7.115-11.313-9.867-18.86c-3.204,2.786-6.092,5.119-8.67,7.007
				s-6.003,4.133-10.269,6.738c-4.071,2.51-7.163,4.33-9.269,5.456c-2.108,1.122-3.616,1.684-4.521,1.684
				c-3.537,0-5.041-1.888-4.51-5.66c0.326-2.333,2.584-4.534,6.775-6.602c7.592-3.681,16.781-10.014,27.567-18.997
				c-2.493-10.687-3.521-23.037-3.092-37.051h-30.34l-2.878,20.479c1.32-0.356,4.426-1.166,9.32-2.425
				c0.941-0.269,1.959-0.558,3.047-0.877c1.086-0.313,2.238-0.605,3.456-0.875c0.752-0.18,1.266-0.269,1.538-0.269
				c1.176,0,2.064,0.449,2.666,1.347c0.599,0.898,0.779,2.204,0.537,3.905c-0.363,2.608-2.711,4.448-7.033,5.523l-14.97,3.912
				l-4.262,30.313c-0.653,4.666-2.292,8.081-4.908,10.237c-2.323,1.915-5.57,2.876-9.734,2.876c-0.525,0-1.063-0.016-1.617-0.046
				h-8.162c-4.354,0-6.266-1.884-5.735-5.66c0.544-3.863,2.993-5.792,7.347-5.792h6.395c3.266,0,5.225-1.704,5.889-5.119
				l3.35-23.847c-6.874,1.8-15.34,3.637-25.4,5.523c-0.379,0.093-0.885,0.133-1.518,0.133c-1.545,0-2.646-0.514-3.32-1.547
				c-0.67-1.031-0.884-2.401-0.646-4.109c0.228-1.615,0.956-2.915,2.184-3.908c1.225-0.986,3.095-1.704,5.608-2.156
				c10.048-1.796,18.242-3.319,24.588-4.578l3.238-23.041h-23.945c-4.354,0-6.278-1.795-5.775-5.387
				c0.497-3.504,2.918-5.256,7.272-5.256h23.945l2.632-18.728c-1.479,0.181-4.07,0.541-7.771,1.078
				c-5.455,0.722-9.785,1.211-12.996,1.483c-0.256,0.018-0.503,0.026-0.74,0.026c-3.411,0-4.861-1.805-4.355-5.418
				c0.266-1.888,1.181-3.234,2.748-4.04c1.188-0.718,4.164-1.256,8.932-1.616c15.3-1.081,27.34-3.187,36.129-6.333
				c2.483-0.898,4.272-1.347,5.361-1.347c3.714,0,5.319,1.843,4.799,5.523c-0.125,0.897-0.459,1.663-1.003,2.289
				c-0.544,0.629-1.354,1.262-2.438,1.888c-1.089,0.629-2.881,1.259-5.367,1.885c-2.494,0.633-6.494,1.482-11.994,2.561
				l-2.914,20.748h29.523c0.963-12.663,1.973-22.771,3.033-30.315C531.196,301.333,533.366,299.088,537.087,299.088
				 M556.999,306.496c2.36,0,5.333,2.381,8.932,7.144c3.67,4.85,5.388,8.129,5.146,9.836c-0.518,3.684-2.729,5.524-6.626,5.524
				c-0.816,0-1.819-0.626-3-1.888c-1.187-1.256-2.677-3.235-4.473-5.929c-2.103-3.143-3.524-5.432-4.272-6.871
				c-0.752-1.436-1.057-2.646-0.918-3.639c0.163-1.164,0.779-2.157,1.844-2.963C554.7,306.904,555.822,306.496,556.999,306.496
				 M537.087,295.088c-2.721,0-9.19,0.992-10.484,10.177c-0.959,6.822-1.89,15.85-2.772,26.874h-21.222l1.879-13.377
				c4.237-0.852,7.331-1.526,9.412-2.055c2.866-0.722,4.957-1.474,6.384-2.298c1.476-0.853,2.609-1.747,3.463-2.735
				c1.051-1.209,1.706-2.677,1.939-4.354c0.427-3.021-0.162-5.484-1.752-7.315s-3.948-2.76-7.008-2.76
				c-1.597,0-3.732,0.504-6.722,1.585c-8.374,2.998-20.17,5.053-35.05,6.104c-6.933,0.524-9.286,1.353-10.593,2.108
				c-2.675,1.419-4.322,3.83-4.766,6.98c-0.428,3.06,0.153,5.526,1.727,7.336c1.047,1.204,3.04,2.64,6.589,2.64
				c0.326,0,0.667-0.012,1.012-0.035l0.033-0.003l0.033-0.003c3.362-0.285,7.797-0.791,13.182-1.503l0.025-0.004l0.024-0.003
				c0.905-0.132,1.738-0.252,2.501-0.36l-1.413,10.051h-20.468c-9.025,0-10.862,6.08-11.233,8.694
				c-0.493,3.522,0.686,5.733,1.761,6.971c1.719,1.976,4.402,2.978,7.975,2.978h19.344l-2.202,15.664
				c-5.806,1.128-12.952,2.449-21.727,4.018c-3.221,0.579-5.644,1.553-7.414,2.979c-2.014,1.63-3.269,3.863-3.636,6.466
				c-0.375,2.688,0.046,4.99,1.252,6.846c1.418,2.174,3.787,3.368,6.675,3.368c0.933,0,1.681-0.069,2.34-0.217
				c7.448-1.398,14.078-2.782,19.793-4.131l-2.51,17.869c-0.351,1.711-0.884,1.788-1.943,1.788h-6.395
				c-6.36,0-10.481,3.366-11.308,9.234c-0.517,3.678,0.691,5.964,1.795,7.233c1.722,1.98,4.38,2.984,7.901,2.984h8.056
				c0.585,0.03,1.164,0.046,1.723,0.046c5.098,0,9.229-1.275,12.278-3.79c2.942-2.424,4.931-5.964,5.929-10.54
				c-0.042,2.356,0.594,4.304,1.897,5.804c1.066,1.227,3.096,2.688,6.714,2.688c1.651,0,3.564-0.644,6.4-2.152
				c2.203-1.178,5.304-3.003,9.488-5.582c4.407-2.692,7.857-4.957,10.533-6.916c1.448-1.061,2.999-2.264,4.639-3.599
				c2.437,5.645,5.236,10.556,8.353,14.648c2.123,2.807,4.438,4.982,6.876,6.457c2.63,1.592,5.3,2.398,7.936,2.398
				c5.348,0,10.165-3.35,14.318-9.956c3.771-5.915,6.165-12.3,7.098-18.954c0.441-3.144-0.149-5.676-1.757-7.525
				c-1.065-1.226-3.095-2.687-6.714-2.687c-2.402,0-4.458,0.693-6.111,2.061c-1.547,1.285-2.702,3.183-3.437,5.646
				c-1.598,5.392-2.783,7.865-3.449,8.965c-0.473-0.41-1.182-1.192-2.07-2.673c-1.622-2.705-3.32-6.793-5.059-12.169
				c18.45-17.425,21.461-23.122,21.92-26.373c0.508-3.632-0.902-5.758-2.174-6.901c-1.597-1.422-3.842-2.106-6.878-2.106
				c-3.483,0-7.027,2.451-11.492,7.947c-1.81,2.242-3.798,4.518-5.951,6.808c-0.537-5.007-0.766-10.238-0.684-15.646h28.766
				c9.152,0,10.997-6.079,11.365-8.693c0.493-3.492-0.685-5.7-1.76-6.937c-1.736-1.999-4.465-3.013-8.109-3.013h-2.951
				c3.216-1.32,5.274-4.118,5.834-8.106c0.422-2.983-1.293-6.694-5.918-12.807c-4.5-5.955-8.352-8.729-12.121-8.729
				c-2.056,0-4,0.681-5.777,2.022c-1.912,1.447-3.084,3.383-3.395,5.601c-0.26,1.858,0.177,3.837,1.336,6.05
				c0.823,1.582,2.293,3.954,4.491,7.239c1.945,2.916,3.545,5.028,4.89,6.451c0.937,1.001,1.865,1.759,2.795,2.279h-18.391
				c0.928-9.511,1.918-18.021,2.952-25.349c0.487-3.479,0.054-6.156-1.321-8.191C543.494,296.997,541.314,295.088,537.087,295.088
				L537.087,295.088z M499.987,350.781h22.78c-0.12,11.628,0.8,22.204,2.742,31.523c-9.689,7.926-18.052,13.615-24.879,16.925
				c-4.661,2.3-7.477,4.898-8.563,7.913l3.718-26.443l12.391-3.238c7.485-1.861,9.565-5.837,9.984-8.842
				c0.382-2.686-0.011-4.936-1.17-6.675c-1.354-2.021-3.481-3.129-5.995-3.129c-0.614,0-1.344,0.11-2.435,0.37
				c-1.279,0.284-2.513,0.597-3.669,0.931c-0.977,0.286-1.881,0.544-2.726,0.785l-0.258,0.073c-1.26,0.324-2.423,0.624-3.477,0.896
				L499.987,350.781L499.987,350.781z"/>
		</g>
		<g>
			<line class="st3" x1="1049.269" y1="198.854" x2="1068.711" y2="198.861"/>
			<line class="st3" x1="1049.269" y1="217.933" x2="1068.711" y2="217.939"/>
			<line class="st3" x1="1049.269" y1="237.015" x2="1068.711" y2="237.021"/>
			<path class="st3" d="M1086.194,195.801c13.373,0,24.224,10.037,24.224,22.421c0,12.385-10.851,22.422-24.224,22.422
				C1072.819,240.644,1072.819,195.801,1086.194,195.801z"/>
		</g>
		<g>
			<path class="st2" d="M11.171,166.094C199.127,60.5,387.393,8.971,647.039,8.971c227.095,0,482.113,81.363,647.79,194.075"/>
			<path class="st1" d="M13.991,204.727C188.294,100.333,395.96,35,647.627,38.5c242.227,3.369,473.541,80.263,644.509,198.28"/>
		</g>
	</g>
</g>
<g id="point">
	<g>
		<path class="st4" d="M647.563,159.801c0,0,0.626,7.687,1.341,19.211c0.843,11.523,1.503,26.891,2.318,42.251
			c0.238,3.844,0.477,7.687,0.715,11.47c0.293,3.782,0.504,7.503,0.545,11.102c-0.008,3.599-0.1,7.082-0.389,10.388
			c-0.217,3.299-0.51,6.422-0.871,9.299c-1.313,11.524-3.659,19.211-3.659,19.211c-0.089,0.286-0.392,0.449-0.681,0.36
			c-0.176-0.055-0.313-0.197-0.359-0.36c0,0-2.348-7.687-3.66-19.211c-0.361-2.877-0.653-6-0.871-9.299
			c-0.289-3.306-0.381-6.789-0.395-10.388c0.047-3.599,0.258-7.319,0.551-11.102c0.238-3.783,0.477-7.626,0.715-11.47
			c0.816-15.36,1.476-30.728,2.319-42.251c0.714-11.524,1.341-19.211,1.341-19.211c0.02-0.286,0.271-0.503,0.564-0.476
			C647.345,159.345,647.542,159.549,647.563,159.801z"/>
	</g>
	<g>
		<path class="st8" d="M216.466,191.705c0,0,0.625,3.919,1.34,9.803c0.374,2.945,0.826,6.374,1.211,10.055
			c0.436,3.673,0.744,7.599,1.108,11.523c0.3,3.918,1.19,7.844,1.259,11.523c0,3.674-0.559,7.109-1.245,10.048
			c-0.734,2.945-1.537,5.395-2.319,7.108c-0.742,1.722-1.354,2.701-1.354,2.701h-1.045c0,0-0.608-0.979-1.35-2.701
			c-0.783-1.714-1.592-4.163-2.32-7.108c-0.693-2.938-1.252-6.374-1.252-10.048c0.075-3.68,0.959-7.605,1.266-11.523
			c0.361-3.925,0.67-7.851,1.109-11.523c0.381-3.681,0.83-7.109,1.211-10.055c0.714-5.884,1.336-9.803,1.336-9.803H216.466z"/>
	</g>
</g>
</svg>
